<svg xmlns="http://www.w3.org/2000/svg" viewBox="0 0 58.8 50.3" style="enable-background:new 0 0 58.8 50.3" xml:space="preserve"><path d="M5.2 49.6.7 41.4c4.4-2.6 7.7-5.4 9.9-8.6 2.2-3.1 3.4-7 3.4-11.6-.3.1-.8.2-1.4.2-2.8 0-5.2-.9-7.3-2.6-2.1-1.8-3.1-4.2-3.1-7.3 0-3.4 1-6.1 3-8.1s4.5-3 7.4-3C16.7.4 19.8 1.9 22 5c2.2 3.1 3.3 7.5 3.3 13.1-.1 14.1-6.8 24.6-20.1 31.5zm33.1 0-4.5-8.2c4.4-2.6 7.7-5.4 9.9-8.6 2.2-3.1 3.4-7 3.4-11.6-.3.1-.8.2-1.4.2-2.8 0-5.2-.9-7.3-2.6-2.1-1.8-3.1-4.2-3.1-7.3 0-3.4 1-6.1 3-8.1s4.5-3 7.4-3c4.1 0 7.2 1.5 9.4 4.6 2.2 3.1 3.3 7.5 3.3 13.1-.1 14.1-6.8 24.6-20.1 31.5z" style="fill:none;stroke:#ef9d5f"/></svg>
